# xmcd
#
# Track frame offsets:
#	150
#	9832
#	21307
#	29707
#	38782
#	49657
#	58507
#	71707
#	87832
#	97882
#	107632
#	116632
#
# Disc length: 1679 seconds
#
# Revision: 1
# Processed by: cddbd v1.5.2PL0 Copyright (c) Steve Scherf et al.
# Submitted via: EasyCDDAExtractor 7.0.3.1
#
DISCID=95068d0c
DTITLE=Josie Kreuzer - Beggin' Me Back
DYEAR=2002
DGENRE=Country
TTITLE0=Lucky and Wild
TTITLE1=Good Time Girl and A Thunderstorm 
TTITLE2=After I Stop Lovin' You 
TTITLE3=Gone Fishin'
TTITLE4=Beggin' Me Back
TTITLE5=Why?
TTITLE6=Keep Your Change 
TTITLE7=Reminder To Remember (To Forget Him)
TTITLE8=Read the Lipstick On the Wall
TTITLE9=Can't Complain
TTITLE10=10 % 
TTITLE11=My Sin ( Mi Pecado)
EXTD=
EXTT0=
EXTT1=
EXTT2=
EXTT3=
EXTT4=
EXTT5=
EXTT6=
EXTT7=
EXTT8=
EXTT9=
EXTT10=
EXTT11=
PLAYORDER=
